<?xml version="1.0" encoding="utf-8"?>
<!-- Generator: Adobe Illustrator 24.0.3, SVG Export Plug-In . SVG Version: 6.00 Build 0)  -->
<svg version="1.1" id="Calque_1" xmlns="http://www.w3.org/2000/svg" xmlns:xlink="http://www.w3.org/1999/xlink" x="0px" y="0px"
	 viewBox="0 0 579.3 116.83" style="enable-background:new 0 0 579.3 116.83;" xml:space="preserve">
<style type="text/css">
	.st0{fill:#FFDB06;stroke:#000000;stroke-width:2;stroke-miterlimit:10;}
	.st1{fill:#FFFFFF;stroke:#000000;stroke-width:2;stroke-miterlimit:10;}
</style>
<g>
	<g>
		<path class="st0" d="M121.78,2.99v27.75c-13.33,2.94-22.9,6.85-28.72,11.73c-5.82,4.88-7.45,9.87-4.9,14.95
			c2.55,5.09,9.38,7.63,20.48,7.63c3.84,0,9.19-0.73,16.05-2.19c0.98,16.25,1.96,26.47,2.94,30.66c0,1.9-11.68,3.85-35.04,5.85
			c-11.24-0.98-20.98-4.39-29.22-10.23c-8.76-6.36-13.14-15.12-13.14-26.28v-2.19c0-24.42,15.25-41.82,45.74-52.18
			C108.92,5.33,117.52,3.49,121.78,2.99z"/>
		<path class="st0" d="M187.67,7.37h3.66c16.41,0,30.52,7.31,42.33,21.93c2.92,6.28,4.38,11.63,4.38,16.05
			c0,16.19-11.92,31.28-35.76,45.27c-13.91,6.32-26.57,9.48-37.98,9.48c-13.85-1.56-22.85-4.23-27-8.01
			c-5.36-7.24-8.04-13.09-8.04-17.55v-8.01c0-18.81,10.46-35.61,31.38-50.4C171.67,10.29,180.68,7.37,187.67,7.37z M161.95,61.37
			c1.19,2.32,4.52,3.3,9.98,2.94c10.24-1.52,17.77-5.83,22.57-12.92c4.81-7.09,3.16-11.37-4.93-12.83
			c-9.59,0-18.11,4.62-25.56,13.86C161.45,56.07,160.76,59.06,161.95,61.37z"/>
		<path class="st0" d="M278.68,2.99c6.8,14.62,12.89,29.7,18.27,45.24c8.89-20.61,14.71-32.77,17.49-36.48
			c2.54,0,13.02,1.46,31.41,4.38v26.31c0,13.16,1.21,35.55,3.63,67.17c-4.32,1.27-10.63,2.16-18.93,2.68
			c-8.3,0.51-12.7,0.35-13.2-0.49l0.75-8.76V71.63v-3.66l-21.9,21.18c-1.96-1.46-6.42-6.85-13.39-16.17l-4.88-6.44
			c-6.32,19.86-10.7,32.03-13.14,36.51c-18.48-6.82-29.43-10.23-32.85-10.23c7.22-35.79,15.01-64.27,23.37-85.44
			C259.27,6.41,267.06,4.95,278.68,2.99z"/>
		<path class="st0" d="M391.56,16.88c3.59,27.49,3.83,56.21,0.72,86.16c-3.15,0-16.78-0.98-40.89-2.94
			c2.52-24.88,3.25-52.14,2.19-81.78C358.85,17.36,371.51,16.88,391.56,16.88z"/>
		<path class="st0" d="M468.46,2.99v27.75c-13.33,2.94-22.9,6.85-28.72,11.73c-5.82,4.88-7.45,9.87-4.9,14.95
			c2.55,5.09,9.38,7.63,20.48,7.63c3.84,0,9.19-0.73,16.05-2.19c0.98,16.25,1.96,26.47,2.94,30.66c0,1.9-11.68,3.85-35.04,5.85
			c-11.24-0.98-20.98-4.39-29.22-10.23c-8.76-6.36-13.14-15.12-13.14-26.28v-2.19c0-24.42,15.25-41.82,45.74-52.18
			C455.6,5.33,464.2,3.49,468.46,2.99z"/>
		<path class="st0" d="M554.4,5.93c0.21,0.48,0.61,3.05,1.2,7.71c0.59,4.66,0.79,10.85,0.58,18.57c-1.77,1.46-11.51,3.41-29.22,5.85
			c30.68,4.86,46.02,11.67,46.02,20.43v2.19c0,8.61-10.71,18.1-32.13,28.47c-9.62,6.03-25.2,12.85-46.74,20.46l-5.85,1.44
			c-8.26-22.9-12.39-34.82-12.39-35.76c5.19-1.96,16.63-5.13,34.32-9.51l3.63-1.44c-26.28-1.11-39.42-3.3-39.42-6.57
			c-2.92-1.71-4.38-5.61-4.38-11.7c0-16.94,25.07-29.84,75.21-38.7L554.4,5.93z"/>
	</g>
	<g>
		<path class="st1" d="M20.09,5.45c2.4,5.15,4.54,10.47,6.44,15.94c3.13-7.26,5.19-11.55,6.16-12.86c0.9,0,4.59,0.51,11.07,1.54
			v9.27c0,4.64,0.43,12.53,1.28,23.67c-1.52,0.45-3.74,0.76-6.67,0.94c-2.93,0.18-4.48,0.12-4.65-0.17l0.26-3.09V29.64v-1.29
			l-7.72,7.46c-0.69-0.51-2.26-2.41-4.72-5.7l-1.72-2.27c-2.23,7-3.77,11.29-4.63,12.87C8.68,38.3,4.82,37.1,3.62,37.1
			C6.16,24.49,8.9,14.45,11.85,6.99C13.25,6.65,15.99,6.14,20.09,5.45z"/>
		<path class="st1" d="M58.05,3.9c2.4,7.81,4.45,12.79,6.17,14.93c4-9.1,6.48-13.9,7.45-14.41c1.96,0.93,5.9,3.93,11.84,9.01
			L71.17,28.35c0.85,7.35,1.19,11.47,1.03,12.36c-5.34,0.17-10.65,0.77-15.95,1.8v-0.52c0-4.31,0.35-7.99,1.04-11.06
			c-3.62-4.53-7.83-11.48-12.61-20.85C51.68,5.96,56.14,3.9,58.05,3.9z"/>
	</g>
</g>
</svg>
